<?xml version="1.0" encoding="iso-8859-1"?>
<!-- Uploaded to: SVG Repo, www.svgrepo.com, Generator: SVG Repo Mixer Tools -->
<!DOCTYPE svg PUBLIC "-//W3C//DTD SVG 1.1//EN" "http://www.w3.org/Graphics/SVG/1.1/DTD/svg11.dtd">
<svg fill="#000000" version="1.1" id="Capa_1" xmlns="http://www.w3.org/2000/svg" xmlns:xlink="http://www.w3.org/1999/xlink" 
	 width="800px" height="800px" viewBox="0 0 94.488 94.488"
	 xml:space="preserve">
<g>
	<g>
		<path d="M47.244,7.808C21.193,7.808,0,29.002,0,55.053C0,65.759,3.684,76.178,10.35,84.52l2.901-6.931
			c-4.404-6.646-6.809-14.5-6.809-22.535c0-22.5,18.304-40.802,40.802-40.802c22.497,0,40.802,18.302,40.802,40.802
			c0,8.339-2.591,16.475-7.297,23.271l2.882,6.906l0.168-0.201c6.894-8.41,10.689-19.058,10.689-29.977
			C94.488,29.003,73.294,7.808,47.244,7.808z"/>
		<polygon points="50.494,79.818 46.992,85.859 43.409,79.828 31.735,79.847 29.192,86.296 64.987,86.236 62.29,79.798 		"/>
		<polygon points="35.89,69.318 34.191,73.626 39.717,73.619 37.16,69.316 		"/>
		<path d="M75.744,66.328c1.999-4.217,3.078-8.858,3.078-13.586c0-17.412-14.167-31.579-31.578-31.579S15.666,35.33,15.666,52.742
			c0,4.392,0.939,8.705,2.68,12.678l2.481-5.926c-0.561-2.194-0.854-4.463-0.854-6.752c0-10.022,5.449-18.778,13.528-23.519
			l1.212-2.895l0.948,1.758c3.521-1.66,7.438-2.619,11.583-2.619c4.012,0,7.812,0.894,11.246,2.457l0.652-1.392l0.89,2.136
			c8.606,4.592,14.483,13.656,14.483,24.072c0,2.674-0.414,5.312-1.168,7.84L75.744,66.328z"/>
		<polygon points="56.598,69.285 54.102,73.595 59.686,73.583 57.885,69.283 		"/>
		<path d="M56.705,31.725c-2.859-1.413-5.967-2.276-9.363-2.276c-3.449,0-6.796,0.887-9.688,2.338l1.653,3.068
			c2.397-1.185,5.184-1.92,8.034-1.92c2.867,0,5.473,0.743,7.881,1.941L56.705,31.725z"/>
		<path d="M68.641,49.302c-0.367-4.69-2.237-8.957-5.141-12.321L68.641,49.302z"/>
		<path d="M29.887,37.23c-2.902,3.364-4.773,7.631-5.14,12.321L29.887,37.23z"/>
		<path d="M53.196,39.189c-1.747-1.04-3.527-1.647-5.702-1.647c-2.732,0-4.255,0.543-5.938,1.487l1.543,2.864
			c1.229-0.698,2.213-1.131,4.395-1.131c1.686,0,3.001,0.509,4.324,1.363L53.196,39.189z"/>
		<path d="M45.518,46.382c0.591-0.456,1.32-0.738,2.123-0.738c0.817,0,1.564,0.294,2.164,0.765l0.584-1.24
			c-0.783-0.538-1.729-0.857-2.748-0.857c-1.03,0-1.979,0.33-2.765,0.881L45.518,46.382z"/>
		<polygon points="47.914,54.738 34.895,30.576 11.406,86.68 27.513,86.68 36.103,64.898 46.974,83.189 57.578,64.898 66.704,86.68 
			82.273,86.68 59.057,31.022 		"/>
	</g>
</g>
</svg>